<?xml version="1.0" encoding="utf-8"?>
<!-- Generator: Adobe Illustrator 22.0.1, SVG Export Plug-In . SVG Version: 6.00 Build 0)  -->
<svg version="1.1" id="图层_1" xmlns="http://www.w3.org/2000/svg" xmlns:xlink="http://www.w3.org/1999/xlink" x="0px" y="0px"
	 viewBox="0 0 101 30" style="enable-background:new 0 0 101 30;" xml:space="preserve">
<style type="text/css">
	.st0{fill:#FFFFFF;}
	.st1{fill-rule:evenodd;clip-rule:evenodd;fill:#FFFFFF;}
</style>
<g>
	<g>
		<g>
			<g>
				<path class="st0" d="M49.8,15.4h2.6c0,0-0.8,3.4-3.1,3.4h-1.6l-0.3-0.7c0,0,0.5,0,0.6,0C49.3,17.6,49.8,15.4,49.8,15.4z
					 M56.4,15v2.3c0,1.4-1.3,1.5-1.3,1.5h-2.7l-0.3-0.8c0,0,0.3,0,0.9,0c0.8,0,0.7-0.7,0.7-0.7V15h-5.7l-0.4-1.2c0,0,2.1,0,4.5-0.8
					h-3.9c-0.1-0.1-0.5-1.1-0.5-1.1s2.9-0.3,3.9-1.7h3.3c0,0-0.8,0.9-2.1,1.6h2c0.7-0.4,1.4-1,2-1.6h3.3c-1.1,1.6-3.2,2.8-5.4,3.6
					h4.9c0.2,0,0.3-0.2,0.2-0.5l-0.8-1.6h2.3c0,0,0.9,1.8,0.9,1.8c0.3,0.9-0.3,1.5-1.3,1.5l-0.7,0L56.4,15z M55.2,3.8l2.5,0v0.9h4.5
					V6h-4.5v1.5c0,0,0,0.9,0.8,0.9h3.8v1.2h-5.5c0,0-1.5,0-1.5-1.7C55.2,6.2,55.2,3.8,55.2,3.8z M47.7,4.3h2.2v3.2
					c0,0-0.1,0.9,0.8,0.9H51V3.8h2.5v0.9h1.3V6h-1.3v2.4h1.3v1.2h-5.6c0,0-1.5-0.1-1.5-1.7V4.3z M60.1,15.4c0,0,0.5,2.1,1.7,2.6
					c0.2,0,0.6,0,0.6,0v0.7h-1.9c-2.3,0-3.1-3.4-3.1-3.4H60.1z"/>
				<path class="st0" d="M64.7,4h2.7c0,0,1.5,4.6,2.2,4.6h0.5v0.8c0,0-1.7,0-1.7,0c-0.5,0-1.2-0.1-1.8-1C66,7.4,64.7,4,64.7,4z
					 M78.9,4c0,0-1.3,3.3-1.9,4.4c-0.6,0.8-1.3,0.9-1.8,1c0,0-1.7,0-1.7,0V8.6h0.5c0.7,0,2.2-4.6,2.2-4.6H78.9z M70.9,11.4
					c-0.1,0.3-0.9,5-1.5,6.3c-0.6,1.3-2.3,1.2-2.3,1.2h-2.4l-0.3-0.7h1.1c1,0,1.6-2.6,1.6-2.6l0.9-4.1h-3.3l-0.4-1.2h6V3.8h2.8v6.3
					h6.1v1.2h-3.6v5c0,0-0.1,1.2,1.3,1.2h2.5v1.3h-3.9c0,0-2.6,0.1-2.6-2.3l0-5.2H70.9z"/>
				<g>
					<path class="st1" d="M58.8,11.8"/>
				</g>
			</g>
			<path class="st0" d="M82.5,4.1h14v1.6H82.8L82.5,4.1z M82.3,9.4h14.4v1.6H88l-2.2,6.5h7.1c0.4,0,0.8-0.4,0.7-0.8l-0.5-2.9h2.9
				l0.6,2.8c0.3,1.2-0.7,2.4-1.9,2.4H82.9v-1.4l2.1-6.5h-2.7V9.4z"/>
			<g>
				<path class="st0" d="M48.5,21.7v2.6c0,0.8,0.3,1.2,0.8,1.2c0.5,0,0.8-0.4,0.8-1.2v-2.6h1v2.5c0,1.4-0.7,2-1.8,2
					c-1.1,0-1.8-0.6-1.8-2v-2.5H48.5z"/>
				<path class="st0" d="M52.3,26.1v-4.4h1.2l0.9,1.6c0.3,0.5,0.5,1,0.7,1.5h0C55,24.3,55,23.7,55,23v-1.3h0.9v4.4h-1.1l-0.9-1.7
					c-0.3-0.5-0.6-1-0.8-1.6l0,0c0,0.6,0,1.2,0,1.9v1.3H52.3z"/>
				<path class="st0" d="M58.1,21.7v4.4h-1v-4.4H58.1z"/>
				<path class="st0" d="M62.5,26c-0.2,0.1-0.6,0.2-1.1,0.2c-1.5,0-2.3-1-2.3-2.2c0-1.5,1.1-2.4,2.4-2.4c0.5,0,0.9,0.1,1.1,0.2
					l-0.2,0.8c-0.2-0.1-0.5-0.2-0.8-0.2c-0.8,0-1.4,0.5-1.4,1.5c0,0.9,0.5,1.4,1.4,1.4c0.3,0,0.6-0.1,0.8-0.1L62.5,26z"/>
				<path class="st0" d="M63.4,21.7h1v3.6h1.8v0.8h-2.8V21.7z"/>
				<path class="st0" d="M70.8,23.9c0,1.5-0.9,2.3-2.2,2.3c-1.3,0-2.1-1-2.1-2.3c0-1.3,0.8-2.3,2.2-2.3
					C70.1,21.6,70.8,22.6,70.8,23.9z M67.6,23.9c0,0.9,0.4,1.5,1.1,1.5c0.7,0,1.1-0.6,1.1-1.5c0-0.8-0.4-1.5-1.1-1.5
					C68,22.4,67.6,23.1,67.6,23.9z"/>
				<path class="st0" d="M72.7,21.7v2.6c0,0.8,0.3,1.2,0.8,1.2c0.5,0,0.8-0.4,0.8-1.2v-2.6h1v2.5c0,1.4-0.7,2-1.8,2
					c-1.1,0-1.8-0.6-1.8-2v-2.5H72.7z"/>
				<path class="st0" d="M76.5,21.8c0.4-0.1,0.8-0.1,1.4-0.1c0.8,0,1.4,0.2,1.8,0.5c0.5,0.3,0.7,0.9,0.7,1.7c0,0.8-0.3,1.4-0.7,1.8
					c-0.5,0.4-1.2,0.6-2,0.6c-0.5,0-0.9,0-1.1-0.1V21.8z M77.5,25.4c0.1,0,0.2,0,0.3,0c0.9,0,1.5-0.5,1.5-1.6c0-0.9-0.5-1.4-1.4-1.4
					c-0.2,0-0.4,0-0.5,0V25.4z"/>
				<path class="st0" d="M81,25.6c0-0.4,0.2-0.6,0.6-0.6c0.3,0,0.6,0.2,0.6,0.6c0,0.3-0.2,0.6-0.6,0.6C81.2,26.2,81,25.9,81,25.6z"
					/>
				<path class="st0" d="M86.3,26c-0.2,0.1-0.6,0.2-1.1,0.2c-1.5,0-2.3-1-2.3-2.2c0-1.5,1.1-2.4,2.4-2.4c0.5,0,0.9,0.1,1.1,0.2
					l-0.2,0.8c-0.2-0.1-0.5-0.2-0.8-0.2c-0.8,0-1.4,0.5-1.4,1.5c0,0.9,0.5,1.4,1.4,1.4c0.3,0,0.6-0.1,0.8-0.1L86.3,26z"/>
				<path class="st0" d="M91.1,23.9c0,1.5-0.9,2.3-2.2,2.3c-1.3,0-2.1-1-2.1-2.3c0-1.3,0.8-2.3,2.2-2.3
					C90.3,21.6,91.1,22.6,91.1,23.9z M87.9,23.9c0,0.9,0.4,1.5,1.1,1.5c0.7,0,1.1-0.6,1.1-1.5c0-0.8-0.4-1.5-1.1-1.5
					C88.3,22.4,87.9,23.1,87.9,23.9z"/>
				<path class="st0" d="M95.7,24.4c0-0.5,0-1.2,0-1.8h0c-0.1,0.6-0.3,1.2-0.5,1.7l-0.5,1.7h-0.8l-0.5-1.7c-0.1-0.5-0.3-1.2-0.4-1.7
					h0c0,0.6,0,1.3-0.1,1.8l-0.1,1.7h-0.9l0.3-4.4h1.3l0.4,1.5c0.1,0.5,0.3,1.1,0.4,1.6h0c0.1-0.5,0.3-1.1,0.4-1.6l0.5-1.5h1.3
					l0.2,4.4h-1L95.7,24.4z"/>
			</g>
		</g>
	</g>
	<g>
		<polygon class="st0" points="34.5,22.5 34.5,12.2 23.3,7.8 31.7,4.6 40.6,8 40.6,8 40.6,24.7 34.7,28.9 14,21 22.6,17.7 		"/>
		<polygon class="st0" points="10.3,22.4 10.3,12.1 30.7,4.2 22.4,1 4.2,8 4.2,8 4.2,24.7 10.2,29 21.7,24.6 13.1,21.3 		"/>
	</g>
</g>
</svg>
